<?xml version="1.0" encoding="UTF-8"?>
<svg width="254px" height="44px" viewBox="0 0 254 44" version="1.1" xmlns="http://www.w3.org/2000/svg" xmlns:xlink="http://www.w3.org/1999/xlink">
    <title>Artboard Copy 6</title>
    <g id="Artboard-Copy-6" stroke="none" stroke-width="1" fill="none" fill-rule="evenodd">
        <g id="Laraissance" transform="translate(58.020000, 4.800000)" fill="#2A2A2A" fill-rule="nonzero">
            <polygon id="Path" points="8.28 11.68 8.28 14.2 0 14.2 0 0 2.74 0 2.74 11.68"></polygon>
            <path d="M14.4,14.4 C13.56,14.4 12.7566667,14.1933333 11.99,13.78 C11.2233333,13.3666667 10.6,12.7533333 10.12,11.94 C9.64,11.1266667 9.4,10.1466667 9.4,9 C9.4,7.85333333 9.64,6.87333333 10.12,6.06 C10.6,5.24666667 11.2233333,4.63333333 11.99,4.22 C12.7566667,3.80666667 13.56,3.6 14.4,3.6 C14.9733333,3.6 15.4966667,3.68666667 15.97,3.86 C16.4433333,4.03333333 16.83,4.24666667 17.13,4.5 C17.43,4.75333333 17.6266667,4.98666667 17.72,5.2 L17.78,5.2 L17.78,3.8 L20.46,3.8 L20.46,14.2 L17.78,14.2 L17.78,12.8 L17.72,12.8 C17.6266667,13.0133333 17.43,13.2466667 17.13,13.5 C16.83,13.7533333 16.4433333,13.9666667 15.97,14.14 C15.4966667,14.3133333 14.9733333,14.4 14.4,14.4 Z M14.94,12 C15.4466667,12 15.9233333,11.8833333 16.37,11.65 C16.8166667,11.4166667 17.1733333,11.0733333 17.44,10.62 C17.7066667,10.1666667 17.84,9.62666667 17.84,9 C17.84,8.37333333 17.7066667,7.83333333 17.44,7.38 C17.1733333,6.92666667 16.8166667,6.58333333 16.37,6.35 C15.9233333,6.11666667 15.4466667,6 14.94,6 C14.4333333,6 13.9566667,6.11666667 13.51,6.35 C13.0633333,6.58333333 12.7066667,6.92666667 12.44,7.38 C12.1733333,7.83333333 12.04,8.37333333 12.04,9 C12.04,9.62666667 12.1733333,10.1666667 12.44,10.62 C12.7066667,11.0733333 13.0633333,11.4166667 13.51,11.65 C13.9566667,11.8833333 14.4333333,12 14.94,12 Z" id="Shape"></path>
            <path d="M28.44,3.6 C28.6933333,3.6 28.9266667,3.62666667 29.14,3.68 L29.14,6.24 C28.9,6.2 28.6733333,6.18 28.46,6.18 C27.46,6.18 26.6633333,6.49666667 26.07,7.13 C25.4766667,7.76333333 25.18,8.60666667 25.18,9.66 L25.18,14.2 L22.5,14.2 L22.5,3.8 L25.18,3.8 L25.18,6.5 C25.38,5.63333333 25.75,4.93333333 26.29,4.4 C26.83,3.86666667 27.5466667,3.6 28.44,3.6 Z" id="Path"></path>
            <path d="M35.16,14.4 C34.32,14.4 33.5166667,14.1933333 32.75,13.78 C31.9833333,13.3666667 31.36,12.7533333 30.88,11.94 C30.4,11.1266667 30.16,10.1466667 30.16,9 C30.16,7.85333333 30.4,6.87333333 30.88,6.06 C31.36,5.24666667 31.9833333,4.63333333 32.75,4.22 C33.5166667,3.80666667 34.32,3.6 35.16,3.6 C35.7333333,3.6 36.2566667,3.68666667 36.73,3.86 C37.2033333,4.03333333 37.59,4.24666667 37.89,4.5 C38.19,4.75333333 38.3866667,4.98666667 38.48,5.2 L38.54,5.2 L38.54,3.8 L41.22,3.8 L41.22,14.2 L38.54,14.2 L38.54,12.8 L38.48,12.8 C38.3866667,13.0133333 38.19,13.2466667 37.89,13.5 C37.59,13.7533333 37.2033333,13.9666667 36.73,14.14 C36.2566667,14.3133333 35.7333333,14.4 35.16,14.4 Z M35.7,12 C36.2066667,12 36.6833333,11.8833333 37.13,11.65 C37.5766667,11.4166667 37.9333333,11.0733333 38.2,10.62 C38.4666667,10.1666667 38.6,9.62666667 38.6,9 C38.6,8.37333333 38.4666667,7.83333333 38.2,7.38 C37.9333333,6.92666667 37.5766667,6.58333333 37.13,6.35 C36.6833333,6.11666667 36.2066667,6 35.7,6 C35.1933333,6 34.7166667,6.11666667 34.27,6.35 C33.8233333,6.58333333 33.4666667,6.92666667 33.2,7.38 C32.9333333,7.83333333 32.8,8.37333333 32.8,9 C32.8,9.62666667 32.9333333,10.1666667 33.2,10.62 C33.4666667,11.0733333 33.8233333,11.4166667 34.27,11.65 C34.7166667,11.8833333 35.1933333,12 35.7,12 Z" id="Shape"></path>
            <path d="M43.26,0 L45.94,0 L45.94,2.36 L43.26,2.36 L43.26,0 Z M43.26,3.8 L45.94,3.8 L45.94,14.2 L43.26,14.2 L43.26,3.8 Z" id="Shape"></path>
            <path d="M51.28,14.4 C50.2266667,14.4 49.3533333,14.15 48.66,13.65 C47.9666667,13.15 47.54,12.4266667 47.38,11.48 L49.52,10.9 C49.64,11.2866667 49.84,11.6133333 50.12,11.88 C50.4,12.1466667 50.7733333,12.28 51.24,12.28 C51.6133333,12.28 51.93,12.1866667 52.19,12 C52.45,11.8133333 52.58,11.5466667 52.58,11.2 C52.58,10.9466667 52.49,10.7266667 52.31,10.54 C52.13,10.3533333 51.84,10.1866667 51.44,10.04 L50.16,9.56 C49.3333333,9.26666667 48.72,8.86 48.32,8.34 C47.92,7.82 47.72,7.23333333 47.72,6.58 C47.72,5.98 47.88,5.45333333 48.2,5 C48.52,4.54666667 48.9566667,4.2 49.51,3.96 C50.0633333,3.72 50.6666667,3.6 51.32,3.6 C52.2533333,3.6 53.0433333,3.84333333 53.69,4.33 C54.3366667,4.81666667 54.7466667,5.46 54.92,6.26 L52.82,6.8 C52.58,6.06666667 52.12,5.7 51.44,5.7 C51.0933333,5.7 50.82,5.78666667 50.62,5.96 C50.42,6.13333333 50.32,6.34666667 50.32,6.6 C50.32,7.09333333 50.68,7.46 51.4,7.7 L52.56,8.14 C53.36,8.43333333 54.0066667,8.81 54.5,9.27 C54.9933333,9.73 55.24,10.3733333 55.24,11.2 C55.24,12.2 54.8633333,12.9833333 54.11,13.55 C53.3566667,14.1166667 52.4133333,14.4 51.28,14.4 Z" id="Path"></path>
            <path d="M60.06,14.4 C59.0066667,14.4 58.1333333,14.15 57.44,13.65 C56.7466667,13.15 56.32,12.4266667 56.16,11.48 L58.3,10.9 C58.42,11.2866667 58.62,11.6133333 58.9,11.88 C59.18,12.1466667 59.5533333,12.28 60.02,12.28 C60.3933333,12.28 60.71,12.1866667 60.97,12 C61.23,11.8133333 61.36,11.5466667 61.36,11.2 C61.36,10.9466667 61.27,10.7266667 61.09,10.54 C60.91,10.3533333 60.62,10.1866667 60.22,10.04 L58.94,9.56 C58.1133333,9.26666667 57.5,8.86 57.1,8.34 C56.7,7.82 56.5,7.23333333 56.5,6.58 C56.5,5.98 56.66,5.45333333 56.98,5 C57.3,4.54666667 57.7366667,4.2 58.29,3.96 C58.8433333,3.72 59.4466667,3.6 60.1,3.6 C61.0333333,3.6 61.8233333,3.84333333 62.47,4.33 C63.1166667,4.81666667 63.5266667,5.46 63.7,6.26 L61.6,6.8 C61.36,6.06666667 60.9,5.7 60.22,5.7 C59.8733333,5.7 59.6,5.78666667 59.4,5.96 C59.2,6.13333333 59.1,6.34666667 59.1,6.6 C59.1,7.09333333 59.46,7.46 60.18,7.7 L61.34,8.14 C62.14,8.43333333 62.7866667,8.81 63.28,9.27 C63.7733333,9.73 64.02,10.3733333 64.02,11.2 C64.02,12.2 63.6433333,12.9833333 62.89,13.55 C62.1366667,14.1166667 61.1933333,14.4 60.06,14.4 Z" id="Path"></path>
            <path d="M70.04,14.4 C69.2,14.4 68.3966667,14.1933333 67.63,13.78 C66.8633333,13.3666667 66.24,12.7533333 65.76,11.94 C65.28,11.1266667 65.04,10.1466667 65.04,9 C65.04,7.85333333 65.28,6.87333333 65.76,6.06 C66.24,5.24666667 66.8633333,4.63333333 67.63,4.22 C68.3966667,3.80666667 69.2,3.6 70.04,3.6 C70.6133333,3.6 71.1366667,3.68666667 71.61,3.86 C72.0833333,4.03333333 72.47,4.24666667 72.77,4.5 C73.07,4.75333333 73.2666667,4.98666667 73.36,5.2 L73.42,5.2 L73.42,3.8 L76.1,3.8 L76.1,14.2 L73.42,14.2 L73.42,12.8 L73.36,12.8 C73.2666667,13.0133333 73.07,13.2466667 72.77,13.5 C72.47,13.7533333 72.0833333,13.9666667 71.61,14.14 C71.1366667,14.3133333 70.6133333,14.4 70.04,14.4 Z M70.58,12 C71.0866667,12 71.5633333,11.8833333 72.01,11.65 C72.4566667,11.4166667 72.8133333,11.0733333 73.08,10.62 C73.3466667,10.1666667 73.48,9.62666667 73.48,9 C73.48,8.37333333 73.3466667,7.83333333 73.08,7.38 C72.8133333,6.92666667 72.4566667,6.58333333 72.01,6.35 C71.5633333,6.11666667 71.0866667,6 70.58,6 C70.0733333,6 69.5966667,6.11666667 69.15,6.35 C68.7033333,6.58333333 68.3466667,6.92666667 68.08,7.38 C67.8133333,7.83333333 67.68,8.37333333 67.68,9 C67.68,9.62666667 67.8133333,10.1666667 68.08,10.62 C68.3466667,11.0733333 68.7033333,11.4166667 69.15,11.65 C69.5966667,11.8833333 70.0733333,12 70.58,12 Z" id="Shape"></path>
            <path d="M84,3.6 C85.1466667,3.6 86.09,3.97333333 86.83,4.72 C87.57,5.46666667 87.94,6.58666667 87.94,8.08 L87.94,14.2 L85.26,14.2 L85.26,8.52 C85.26,7.74666667 85.0633333,7.13333333 84.67,6.68 C84.2766667,6.22666667 83.7333333,6 83.04,6 C82.36,6 81.82,6.23 81.42,6.69 C81.02,7.15 80.82,7.76 80.82,8.52 L80.82,14.2 L78.14,14.2 L78.14,3.8 L80.82,3.8 L80.82,5.22 C81.1266667,4.72666667 81.5466667,4.33333333 82.08,4.04 C82.6133333,3.74666667 83.2533333,3.6 84,3.6 Z" id="Path"></path>
            <path d="M94.96,14.4 C94.0133333,14.4 93.1233333,14.19 92.29,13.77 C91.4566667,13.35 90.78,12.73 90.26,11.91 C89.74,11.09 89.48,10.12 89.48,9 C89.48,7.88 89.74,6.91 90.26,6.09 C90.78,5.27 91.4566667,4.65 92.29,4.23 C93.1233333,3.81 94.0133333,3.6 94.96,3.6 C95.8933333,3.6 96.75,3.81666667 97.53,4.25 C98.31,4.68333333 98.9466667,5.32 99.44,6.16 L97.48,7.42 C97.2,6.99333333 96.8433333,6.65333333 96.41,6.4 C95.9766667,6.14666667 95.5,6.02 94.98,6.02 C94.4733333,6.02 94,6.14 93.56,6.38 C93.12,6.62 92.77,6.96666667 92.51,7.42 C92.25,7.87333333 92.12,8.4 92.12,9 C92.12,9.6 92.25,10.1266667 92.51,10.58 C92.77,11.0333333 93.12,11.38 93.56,11.62 C94,11.86 94.4733333,11.98 94.98,11.98 C95.5,11.98 95.9766667,11.8533333 96.41,11.6 C96.8433333,11.3466667 97.2,11.0066667 97.48,10.58 L99.44,11.84 C98.9466667,12.6666667 98.31,13.3 97.53,13.74 C96.75,14.18 95.8933333,14.4 94.96,14.4 Z" id="Path"></path>
            <path d="M105.74,3.6 C106.606667,3.6 107.43,3.79 108.21,4.17 C108.99,4.55 109.63,5.14333333 110.13,5.95 C110.63,6.75666667 110.88,7.75333333 110.88,8.94 C110.88,9.16666667 110.853333,9.53333333 110.8,10.04 L103.02,10.04 C103.206667,10.7333333 103.583333,11.2666667 104.15,11.64 C104.716667,12.0133333 105.4,12.2 106.2,12.2 C107.266667,12.2 108.16,11.8866667 108.88,11.26 L110.1,12.56 C109.66,13.12 109.073333,13.5666667 108.34,13.9 C107.606667,14.2333333 106.793333,14.4 105.9,14.4 C104.926667,14.4 104.026667,14.1866667 103.2,13.76 C102.373333,13.3333333 101.713333,12.71 101.22,11.89 C100.726667,11.07 100.48,10.1066667 100.48,9 C100.48,7.88 100.726667,6.91333333 101.22,6.1 C101.713333,5.28666667 102.363333,4.66666667 103.17,4.24 C103.976667,3.81333333 104.833333,3.6 105.74,3.6 Z M105.76,5.86 C105.106667,5.86 104.52,6.05 104,6.43 C103.48,6.81 103.14,7.36 102.98,8.08 L108.42,8.08 C108.34,7.37333333 108.046667,6.82666667 107.54,6.44 C107.033333,6.05333333 106.44,5.86 105.76,5.86 Z" id="Shape"></path>
        </g>
        <g id="Česko-slovenská-Lara" transform="translate(57.540000, 25.840000)" fill="#4C4C4C" fill-rule="nonzero">
            <path d="M4.368,11.28 C3.576,11.28 2.846,11.096 2.178,10.728 C1.51,10.36 0.98,9.844 0.588,9.18 C0.196,8.516 0,7.756 0,6.9 C0,6.044 0.196,5.284 0.588,4.62 C0.98,3.956 1.51,3.44 2.178,3.072 C2.846,2.704 3.576,2.52 4.368,2.52 C5.008,2.52 5.628,2.654 6.228,2.922 C6.828,3.19 7.336,3.644 7.752,4.284 L6.768,4.98 C6.472,4.572 6.118,4.276 5.706,4.092 C5.294,3.908 4.86,3.816 4.404,3.816 C3.844,3.816 3.336,3.944 2.88,4.2 C2.424,4.456 2.062,4.818 1.794,5.286 C1.526,5.754 1.392,6.292 1.392,6.9 C1.392,7.508 1.526,8.046 1.794,8.514 C2.062,8.982 2.426,9.344 2.886,9.6 C3.346,9.856 3.856,9.984 4.416,9.984 C4.872,9.984 5.304,9.892 5.712,9.708 C6.12,9.524 6.472,9.228 6.768,8.82 L7.752,9.516 C7.336,10.156 6.828,10.61 6.228,10.878 C5.628,11.146 5.008,11.28 4.368,11.28 Z M4.056,1.224 L5.136,0 L5.796,0.588 L4.5,2.076 L3.612,2.076 L2.316,0.588 L2.976,0 L4.056,1.224 Z" id="Shape"></path>
            <path d="M11.664,4.8 C12.184,4.8 12.676,4.916 13.14,5.148 C13.604,5.38 13.982,5.734 14.274,6.21 C14.566,6.686 14.712,7.272 14.712,7.968 C14.712,8.144 14.7,8.336 14.676,8.544 L9.78,8.544 C9.876,9.072 10.116,9.476 10.5,9.756 C10.884,10.036 11.352,10.176 11.904,10.176 C12.6,10.176 13.176,9.96 13.632,9.528 L14.256,10.176 C13.984,10.52 13.63,10.79 13.194,10.986 C12.758,11.182 12.28,11.28 11.76,11.28 C11.184,11.28 10.65,11.152 10.158,10.896 C9.666,10.64 9.272,10.266 8.976,9.774 C8.68,9.282 8.532,8.704 8.532,8.04 C8.532,7.368 8.678,6.788 8.97,6.3 C9.262,5.812 9.648,5.44 10.128,5.184 C10.608,4.928 11.12,4.8 11.664,4.8 Z M11.676,5.928 C11.212,5.928 10.8,6.068 10.44,6.348 C10.08,6.628 9.856,7.032 9.768,7.56 L13.5,7.56 C13.468,7.048 13.274,6.648 12.918,6.36 C12.562,6.072 12.148,5.928 11.676,5.928 Z" id="Shape"></path>
            <path d="M17.64,11.28 C17.032,11.28 16.526,11.13 16.122,10.83 C15.718,10.53 15.468,10.108 15.372,9.564 L16.452,9.264 C16.524,9.544 16.66,9.772 16.86,9.948 C17.06,10.124 17.316,10.212 17.628,10.212 C17.9,10.212 18.13,10.142 18.318,10.002 C18.506,9.862 18.6,9.664 18.6,9.408 C18.6,9.216 18.532,9.052 18.396,8.916 C18.26,8.78 18.04,8.652 17.736,8.532 L17.064,8.28 C16.568,8.088 16.2,7.842 15.96,7.542 C15.72,7.242 15.6,6.9 15.6,6.516 C15.6,6.004 15.796,5.59 16.188,5.274 C16.58,4.958 17.068,4.8 17.652,4.8 C18.18,4.8 18.628,4.936 18.996,5.208 C19.364,5.48 19.604,5.844 19.716,6.3 L18.672,6.576 C18.504,6.096 18.184,5.856 17.712,5.856 C17.472,5.856 17.276,5.918 17.124,6.042 C16.972,6.166 16.896,6.328 16.896,6.528 C16.896,6.88 17.152,7.148 17.664,7.332 L18.276,7.572 C18.796,7.764 19.2,7.996 19.488,8.268 C19.776,8.54 19.92,8.92 19.92,9.408 C19.92,10.008 19.702,10.47 19.266,10.794 C18.83,11.118 18.288,11.28 17.64,11.28 Z" id="Path"></path>
            <polygon id="Path" points="23.136 8.628 22.26 9.576 22.26 11.16 20.94 11.16 20.94 2.64 22.26 2.64 22.26 7.872 24.912 4.92 26.52 4.92 23.964 7.716 26.796 11.16 25.284 11.16"></polygon>
            <path d="M30.648,11.28 C30.088,11.28 29.558,11.152 29.058,10.896 C28.558,10.64 28.154,10.268 27.846,9.78 C27.538,9.292 27.384,8.712 27.384,8.04 C27.384,7.368 27.538,6.788 27.846,6.3 C28.154,5.812 28.558,5.44 29.058,5.184 C29.558,4.928 30.088,4.8 30.648,4.8 C31.208,4.8 31.738,4.928 32.238,5.184 C32.738,5.44 33.142,5.812 33.45,6.3 C33.758,6.788 33.912,7.368 33.912,8.04 C33.912,8.712 33.758,9.292 33.45,9.78 C33.142,10.268 32.738,10.64 32.238,10.896 C31.738,11.152 31.208,11.28 30.648,11.28 Z M30.648,10.068 C30.992,10.068 31.312,9.986 31.608,9.822 C31.904,9.658 32.142,9.424 32.322,9.12 C32.502,8.816 32.592,8.456 32.592,8.04 C32.592,7.624 32.502,7.264 32.322,6.96 C32.142,6.656 31.904,6.422 31.608,6.258 C31.312,6.094 30.992,6.012 30.648,6.012 C30.304,6.012 29.982,6.094 29.682,6.258 C29.382,6.422 29.142,6.656 28.962,6.96 C28.782,7.264 28.692,7.624 28.692,8.04 C28.692,8.456 28.782,8.816 28.962,9.12 C29.142,9.424 29.382,9.658 29.682,9.822 C29.982,9.986 30.304,10.068 30.648,10.068 Z" id="Shape"></path>
            <polygon id="Path" points="34.812 7.284 38.532 7.284 38.532 8.388 34.812 8.388"></polygon>
            <path d="M41.64,11.28 C41.032,11.28 40.526,11.13 40.122,10.83 C39.718,10.53 39.468,10.108 39.372,9.564 L40.452,9.264 C40.524,9.544 40.66,9.772 40.86,9.948 C41.06,10.124 41.316,10.212 41.628,10.212 C41.9,10.212 42.13,10.142 42.318,10.002 C42.506,9.862 42.6,9.664 42.6,9.408 C42.6,9.216 42.532,9.052 42.396,8.916 C42.26,8.78 42.04,8.652 41.736,8.532 L41.064,8.28 C40.568,8.088 40.2,7.842 39.96,7.542 C39.72,7.242 39.6,6.9 39.6,6.516 C39.6,6.004 39.796,5.59 40.188,5.274 C40.58,4.958 41.068,4.8 41.652,4.8 C42.18,4.8 42.628,4.936 42.996,5.208 C43.364,5.48 43.604,5.844 43.716,6.3 L42.672,6.576 C42.504,6.096 42.184,5.856 41.712,5.856 C41.472,5.856 41.276,5.918 41.124,6.042 C40.972,6.166 40.896,6.328 40.896,6.528 C40.896,6.88 41.152,7.148 41.664,7.332 L42.276,7.572 C42.796,7.764 43.2,7.996 43.488,8.268 C43.776,8.54 43.92,8.92 43.92,9.408 C43.92,10.008 43.702,10.47 43.266,10.794 C42.83,11.118 42.288,11.28 41.64,11.28 Z" id="Path"></path>
            <polygon id="Path" points="44.94 2.64 46.26 2.64 46.26 11.16 44.94 11.16"></polygon>
            <path d="M50.544,11.28 C49.984,11.28 49.454,11.152 48.954,10.896 C48.454,10.64 48.05,10.268 47.742,9.78 C47.434,9.292 47.28,8.712 47.28,8.04 C47.28,7.368 47.434,6.788 47.742,6.3 C48.05,5.812 48.454,5.44 48.954,5.184 C49.454,4.928 49.984,4.8 50.544,4.8 C51.104,4.8 51.634,4.928 52.134,5.184 C52.634,5.44 53.038,5.812 53.346,6.3 C53.654,6.788 53.808,7.368 53.808,8.04 C53.808,8.712 53.654,9.292 53.346,9.78 C53.038,10.268 52.634,10.64 52.134,10.896 C51.634,11.152 51.104,11.28 50.544,11.28 Z M50.544,10.068 C50.888,10.068 51.208,9.986 51.504,9.822 C51.8,9.658 52.038,9.424 52.218,9.12 C52.398,8.816 52.488,8.456 52.488,8.04 C52.488,7.624 52.398,7.264 52.218,6.96 C52.038,6.656 51.8,6.422 51.504,6.258 C51.208,6.094 50.888,6.012 50.544,6.012 C50.2,6.012 49.878,6.094 49.578,6.258 C49.278,6.422 49.038,6.656 48.858,6.96 C48.678,7.264 48.588,7.624 48.588,8.04 C48.588,8.456 48.678,8.816 48.858,9.12 C49.038,9.424 49.278,9.658 49.578,9.822 C49.878,9.986 50.2,10.068 50.544,10.068 Z" id="Shape"></path>
            <polygon id="Path" points="54.408 4.92 55.764 4.92 57.66 9.564 59.544 4.92 60.912 4.92 58.272 11.16 57.036 11.16"></polygon>
            <path d="M64.644,4.8 C65.164,4.8 65.656,4.916 66.12,5.148 C66.584,5.38 66.962,5.734 67.254,6.21 C67.546,6.686 67.692,7.272 67.692,7.968 C67.692,8.144 67.68,8.336 67.656,8.544 L62.76,8.544 C62.856,9.072 63.096,9.476 63.48,9.756 C63.864,10.036 64.332,10.176 64.884,10.176 C65.58,10.176 66.156,9.96 66.612,9.528 L67.236,10.176 C66.964,10.52 66.61,10.79 66.174,10.986 C65.738,11.182 65.26,11.28 64.74,11.28 C64.164,11.28 63.63,11.152 63.138,10.896 C62.646,10.64 62.252,10.266 61.956,9.774 C61.66,9.282 61.512,8.704 61.512,8.04 C61.512,7.368 61.658,6.788 61.95,6.3 C62.242,5.812 62.628,5.44 63.108,5.184 C63.588,4.928 64.1,4.8 64.644,4.8 Z M64.656,5.928 C64.192,5.928 63.78,6.068 63.42,6.348 C63.06,6.628 62.836,7.032 62.748,7.56 L66.48,7.56 C66.448,7.048 66.254,6.648 65.898,6.36 C65.542,6.072 65.128,5.928 64.656,5.928 Z" id="Shape"></path>
            <path d="M72.036,4.8 C72.732,4.8 73.304,5.024 73.752,5.472 C74.2,5.92 74.424,6.592 74.424,7.488 L74.424,11.16 L73.092,11.16 L73.092,7.704 C73.092,7.168 72.956,6.75 72.684,6.45 C72.412,6.15 72.04,6 71.568,6 C71.104,6 70.732,6.15 70.452,6.45 C70.172,6.75 70.032,7.168 70.032,7.704 L70.032,11.16 L68.712,11.16 L68.712,4.92 L70.032,4.92 L70.032,5.856 C70.216,5.544 70.478,5.29 70.818,5.094 C71.158,4.898 71.564,4.8 72.036,4.8 Z" id="Path"></path>
            <path d="M77.652,11.28 C77.044,11.28 76.538,11.13 76.134,10.83 C75.73,10.53 75.48,10.108 75.384,9.564 L76.464,9.264 C76.536,9.544 76.672,9.772 76.872,9.948 C77.072,10.124 77.328,10.212 77.64,10.212 C77.912,10.212 78.142,10.142 78.33,10.002 C78.518,9.862 78.612,9.664 78.612,9.408 C78.612,9.216 78.544,9.052 78.408,8.916 C78.272,8.78 78.052,8.652 77.748,8.532 L77.076,8.28 C76.58,8.088 76.212,7.842 75.972,7.542 C75.732,7.242 75.612,6.9 75.612,6.516 C75.612,6.004 75.808,5.59 76.2,5.274 C76.592,4.958 77.08,4.8 77.664,4.8 C78.192,4.8 78.64,4.936 79.008,5.208 C79.376,5.48 79.616,5.844 79.728,6.3 L78.684,6.576 C78.516,6.096 78.196,5.856 77.724,5.856 C77.484,5.856 77.288,5.918 77.136,6.042 C76.984,6.166 76.908,6.328 76.908,6.528 C76.908,6.88 77.164,7.148 77.676,7.332 L78.288,7.572 C78.808,7.764 79.212,7.996 79.5,8.268 C79.788,8.54 79.932,8.92 79.932,9.408 C79.932,10.008 79.714,10.47 79.278,10.794 C78.842,11.118 78.3,11.28 77.652,11.28 Z" id="Path"></path>
            <polygon id="Path" points="83.148 8.628 82.272 9.576 82.272 11.16 80.952 11.16 80.952 2.64 82.272 2.64 82.272 7.872 84.924 4.92 86.532 4.92 83.976 7.716 86.808 11.16 85.296 11.16"></polygon>
            <path d="M90.42,11.28 C89.908,11.28 89.42,11.156 88.956,10.908 C88.492,10.66 88.116,10.29 87.828,9.798 C87.54,9.306 87.396,8.72 87.396,8.04 C87.396,7.36 87.54,6.774 87.828,6.282 C88.116,5.79 88.492,5.42 88.956,5.172 C89.42,4.924 89.908,4.8 90.42,4.8 C90.948,4.8 91.408,4.916 91.8,5.148 C92.192,5.38 92.452,5.636 92.58,5.916 L92.616,5.916 L92.616,4.92 L93.936,4.92 L93.936,11.16 L92.616,11.16 L92.616,10.164 L92.58,10.164 C92.452,10.444 92.192,10.7 91.8,10.932 C91.408,11.164 90.948,11.28 90.42,11.28 Z M90.672,10.08 C91.016,10.08 91.34,10.002 91.644,9.846 C91.948,9.69 92.192,9.458 92.376,9.15 C92.56,8.842 92.652,8.472 92.652,8.04 C92.652,7.608 92.56,7.238 92.376,6.93 C92.192,6.622 91.948,6.39 91.644,6.234 C91.34,6.078 91.016,6 90.672,6 C90.328,6 90.006,6.078 89.706,6.234 C89.406,6.39 89.164,6.622 88.98,6.93 C88.796,7.238 88.704,7.608 88.704,8.04 C88.704,8.472 88.796,8.842 88.98,9.15 C89.164,9.458 89.406,9.69 89.706,9.846 C90.006,10.002 90.328,10.08 90.672,10.08 Z M90.972,2.28 L92.172,2.28 L91.332,4.152 L90.216,4.152 L90.972,2.28 Z" id="Shape"></path>
            <polygon id="Path" points="102.648 9.9 102.648 11.16 97.776 11.16 97.776 2.64 99.132 2.64 99.132 9.9"></polygon>
            <path d="M106.44,11.28 C105.928,11.28 105.44,11.156 104.976,10.908 C104.512,10.66 104.136,10.29 103.848,9.798 C103.56,9.306 103.416,8.72 103.416,8.04 C103.416,7.36 103.56,6.774 103.848,6.282 C104.136,5.79 104.512,5.42 104.976,5.172 C105.44,4.924 105.928,4.8 106.44,4.8 C106.968,4.8 107.428,4.916 107.82,5.148 C108.212,5.38 108.472,5.636 108.6,5.916 L108.636,5.916 L108.636,4.92 L109.956,4.92 L109.956,11.16 L108.636,11.16 L108.636,10.164 L108.6,10.164 C108.472,10.444 108.212,10.7 107.82,10.932 C107.428,11.164 106.968,11.28 106.44,11.28 Z M106.692,10.08 C107.036,10.08 107.36,10.002 107.664,9.846 C107.968,9.69 108.212,9.458 108.396,9.15 C108.58,8.842 108.672,8.472 108.672,8.04 C108.672,7.608 108.58,7.238 108.396,6.93 C108.212,6.622 107.968,6.39 107.664,6.234 C107.36,6.078 107.036,6 106.692,6 C106.348,6 106.026,6.078 105.726,6.234 C105.426,6.39 105.184,6.622 105,6.93 C104.816,7.238 104.724,7.608 104.724,8.04 C104.724,8.472 104.816,8.842 105,9.15 C105.184,9.458 105.426,9.69 105.726,9.846 C106.026,10.002 106.348,10.08 106.692,10.08 Z" id="Shape"></path>
            <path d="M114.576,4.8 C114.72,4.8 114.852,4.816 114.972,4.848 L114.972,6.108 C114.844,6.084 114.716,6.072 114.588,6.072 C113.996,6.072 113.516,6.27 113.148,6.666 C112.78,7.062 112.596,7.588 112.596,8.244 L112.596,11.16 L111.276,11.16 L111.276,4.92 L112.596,4.92 L112.596,6.528 C112.716,6.016 112.942,5.6 113.274,5.28 C113.606,4.96 114.04,4.8 114.576,4.8 Z" id="Path"></path>
            <path d="M118.704,11.28 C118.192,11.28 117.704,11.156 117.24,10.908 C116.776,10.66 116.4,10.29 116.112,9.798 C115.824,9.306 115.68,8.72 115.68,8.04 C115.68,7.36 115.824,6.774 116.112,6.282 C116.4,5.79 116.776,5.42 117.24,5.172 C117.704,4.924 118.192,4.8 118.704,4.8 C119.232,4.8 119.692,4.916 120.084,5.148 C120.476,5.38 120.736,5.636 120.864,5.916 L120.9,5.916 L120.9,4.92 L122.22,4.92 L122.22,11.16 L120.9,11.16 L120.9,10.164 L120.864,10.164 C120.736,10.444 120.476,10.7 120.084,10.932 C119.692,11.164 119.232,11.28 118.704,11.28 Z M118.956,10.08 C119.3,10.08 119.624,10.002 119.928,9.846 C120.232,9.69 120.476,9.458 120.66,9.15 C120.844,8.842 120.936,8.472 120.936,8.04 C120.936,7.608 120.844,7.238 120.66,6.93 C120.476,6.622 120.232,6.39 119.928,6.234 C119.624,6.078 119.3,6 118.956,6 C118.612,6 118.29,6.078 117.99,6.234 C117.69,6.39 117.448,6.622 117.264,6.93 C117.08,7.238 116.988,7.608 116.988,8.04 C116.988,8.472 117.08,8.842 117.264,9.15 C117.448,9.458 117.69,9.69 117.99,9.846 C118.29,10.002 118.612,10.08 118.956,10.08 Z" id="Shape"></path>
            <polygon id="Path" points="123.12 4.92 124.476 4.92 126.372 9.564 128.256 4.92 129.624 4.92 126.984 11.16 125.748 11.16"></polygon>
            <path d="M133.356,4.8 C133.876,4.8 134.368,4.916 134.832,5.148 C135.296,5.38 135.674,5.734 135.966,6.21 C136.258,6.686 136.404,7.272 136.404,7.968 C136.404,8.144 136.392,8.336 136.368,8.544 L131.472,8.544 C131.568,9.072 131.808,9.476 132.192,9.756 C132.576,10.036 133.044,10.176 133.596,10.176 C134.292,10.176 134.868,9.96 135.324,9.528 L135.948,10.176 C135.676,10.52 135.322,10.79 134.886,10.986 C134.45,11.182 133.972,11.28 133.452,11.28 C132.876,11.28 132.342,11.152 131.85,10.896 C131.358,10.64 130.964,10.266 130.668,9.774 C130.372,9.282 130.224,8.704 130.224,8.04 C130.224,7.368 130.37,6.788 130.662,6.3 C130.954,5.812 131.34,5.44 131.82,5.184 C132.3,4.928 132.812,4.8 133.356,4.8 Z M133.368,5.928 C132.904,5.928 132.492,6.068 132.132,6.348 C131.772,6.628 131.548,7.032 131.46,7.56 L135.192,7.56 C135.16,7.048 134.966,6.648 134.61,6.36 C134.254,6.072 133.84,5.928 133.368,5.928 Z" id="Shape"></path>
            <polygon id="Path" points="137.424 2.64 138.744 2.64 138.744 11.16 137.424 11.16"></polygon>
            <polygon id="Path" points="144.78 8.628 143.904 9.576 143.904 11.16 142.584 11.16 142.584 2.64 143.904 2.64 143.904 7.872 146.556 4.92 148.164 4.92 145.608 7.716 148.44 11.16 146.928 11.16"></polygon>
            <path d="M152.292,11.28 C151.732,11.28 151.202,11.152 150.702,10.896 C150.202,10.64 149.798,10.268 149.49,9.78 C149.182,9.292 149.028,8.712 149.028,8.04 C149.028,7.368 149.182,6.788 149.49,6.3 C149.798,5.812 150.202,5.44 150.702,5.184 C151.202,4.928 151.732,4.8 152.292,4.8 C152.852,4.8 153.382,4.928 153.882,5.184 C154.382,5.44 154.786,5.812 155.094,6.3 C155.402,6.788 155.556,7.368 155.556,8.04 C155.556,8.712 155.402,9.292 155.094,9.78 C154.786,10.268 154.382,10.64 153.882,10.896 C153.382,11.152 152.852,11.28 152.292,11.28 Z M152.292,10.068 C152.636,10.068 152.956,9.986 153.252,9.822 C153.548,9.658 153.786,9.424 153.966,9.12 C154.146,8.816 154.236,8.456 154.236,8.04 C154.236,7.624 154.146,7.264 153.966,6.96 C153.786,6.656 153.548,6.422 153.252,6.258 C152.956,6.094 152.636,6.012 152.292,6.012 C151.948,6.012 151.626,6.094 151.326,6.258 C151.026,6.422 150.786,6.656 150.606,6.96 C150.426,7.264 150.336,7.624 150.336,8.04 C150.336,8.456 150.426,8.816 150.606,9.12 C150.786,9.424 151.026,9.658 151.326,9.822 C151.626,9.986 151.948,10.068 152.292,10.068 Z" id="Shape"></path>
            <path d="M163.728,4.8 C164.416,4.8 164.966,5.026 165.378,5.478 C165.79,5.93 165.996,6.608 165.996,7.512 L165.996,11.16 L164.664,11.16 L164.664,7.584 C164.664,7.08 164.548,6.69 164.316,6.414 C164.084,6.138 163.76,6 163.344,6 C162.912,6 162.572,6.14 162.324,6.42 C162.076,6.7 161.952,7.088 161.952,7.584 L161.952,11.16 L160.62,11.16 L160.62,7.584 C160.62,7.08 160.504,6.69 160.272,6.414 C160.04,6.138 159.716,6 159.3,6 C158.868,6 158.526,6.14 158.274,6.42 C158.022,6.7 157.896,7.088 157.896,7.584 L157.896,11.16 L156.576,11.16 L156.576,4.92 L157.896,4.92 L157.896,5.808 C158.072,5.504 158.314,5.26 158.622,5.076 C158.93,4.892 159.304,4.8 159.744,4.8 C160.168,4.8 160.544,4.894 160.872,5.082 C161.2,5.27 161.456,5.556 161.64,5.94 C161.824,5.604 162.092,5.33 162.444,5.118 C162.796,4.906 163.224,4.8 163.728,4.8 Z" id="Path"></path>
            <path d="M173.016,4.92 L173.016,11.16 L171.684,11.16 L171.684,10.236 C171.492,10.548 171.23,10.8 170.898,10.992 C170.566,11.184 170.164,11.28 169.692,11.28 C168.996,11.28 168.424,11.056 167.976,10.608 C167.528,10.16 167.304,9.488 167.304,8.592 L167.304,4.92 L168.624,4.92 L168.624,8.376 C168.624,8.912 168.762,9.33 169.038,9.63 C169.314,9.93 169.684,10.08 170.148,10.08 C170.612,10.08 170.984,9.93 171.264,9.63 C171.544,9.33 171.684,8.912 171.684,8.376 L171.684,4.92 L173.016,4.92 Z" id="Path"></path>
            <path d="M177.66,4.8 C178.356,4.8 178.928,5.024 179.376,5.472 C179.824,5.92 180.048,6.592 180.048,7.488 L180.048,11.16 L178.716,11.16 L178.716,7.704 C178.716,7.168 178.58,6.75 178.308,6.45 C178.036,6.15 177.664,6 177.192,6 C176.728,6 176.356,6.15 176.076,6.45 C175.796,6.75 175.656,7.168 175.656,7.704 L175.656,11.16 L174.336,11.16 L174.336,4.92 L175.656,4.92 L175.656,5.856 C175.84,5.544 176.102,5.29 176.442,5.094 C176.782,4.898 177.188,4.8 177.66,4.8 Z" id="Path"></path>
            <path d="M181.368,2.64 L182.688,2.64 L182.688,3.828 L181.368,3.828 L181.368,2.64 Z M181.368,4.92 L182.688,4.92 L182.688,11.16 L181.368,11.16 L181.368,4.92 Z" id="Shape"></path>
            <path d="M185.904,5.988 L185.904,9.408 C185.904,9.6 185.96,9.754 186.072,9.87 C186.184,9.986 186.356,10.044 186.588,10.044 C186.78,10.044 186.972,10.008 187.164,9.936 L187.164,10.98 C186.964,11.148 186.64,11.232 186.192,11.232 C185.696,11.232 185.302,11.102 185.01,10.842 C184.718,10.582 184.572,10.184 184.572,9.648 L184.572,5.988 L183.708,5.988 L183.708,4.92 L184.572,4.92 L184.572,3.324 L185.904,3.324 L185.904,4.92 L187.164,4.92 L187.164,5.988 L185.904,5.988 Z" id="Path"></path>
            <path d="M190.968,11.28 C190.456,11.28 189.968,11.156 189.504,10.908 C189.04,10.66 188.664,10.29 188.376,9.798 C188.088,9.306 187.944,8.72 187.944,8.04 C187.944,7.36 188.088,6.774 188.376,6.282 C188.664,5.79 189.04,5.42 189.504,5.172 C189.968,4.924 190.456,4.8 190.968,4.8 C191.496,4.8 191.956,4.916 192.348,5.148 C192.74,5.38 193,5.636 193.128,5.916 L193.164,5.916 L193.164,4.92 L194.484,4.92 L194.484,11.16 L193.164,11.16 L193.164,10.164 L193.128,10.164 C193,10.444 192.74,10.7 192.348,10.932 C191.956,11.164 191.496,11.28 190.968,11.28 Z M191.22,10.08 C191.564,10.08 191.888,10.002 192.192,9.846 C192.496,9.69 192.74,9.458 192.924,9.15 C193.108,8.842 193.2,8.472 193.2,8.04 C193.2,7.608 193.108,7.238 192.924,6.93 C192.74,6.622 192.496,6.39 192.192,6.234 C191.888,6.078 191.564,6 191.22,6 C190.876,6 190.554,6.078 190.254,6.234 C189.954,6.39 189.712,6.622 189.528,6.93 C189.344,7.238 189.252,7.608 189.252,8.04 C189.252,8.472 189.344,8.842 189.528,9.15 C189.712,9.458 189.954,9.69 190.254,9.846 C190.554,10.002 190.876,10.08 191.22,10.08 Z" id="Shape"></path>
        </g>
        <g id="Logo" transform="translate(0.022089, 0.800000)" fill="#FF2D20">
            <path d="M40.8265234,9.6590139 C40.8415102,9.7142399 40.8493151,9.77118123 40.8493151,9.82838717 L40.8493151,18.7200783 C40.8493151,18.9523769 40.7244949,19.1669263 40.5220915,19.2824948 L33.0260671,23.5792271 L33.0260671,32.0957038 C33.0260671,32.3274778 32.9023408,32.5414229 32.7004715,32.6581203 L17.0531616,41.6259889 C17.0173461,41.6462489 16.9782746,41.6592153 16.9392031,41.672992 C16.9245513,41.6778544 16.9107135,41.6867688 16.8952477,41.6908208 C16.7858671,41.7194981 16.6708928,41.7194981 16.5615122,41.6908208 C16.5436045,41.6859584 16.5273247,41.6762336 16.5102309,41.6697505 C16.4744154,41.6567841 16.4369719,41.6454385 16.4027844,41.6259889 L0.758730414,32.6581203 C0.556450262,32.5424286 0.431506849,32.3279572 0.431506849,32.0957038 L0.431506849,5.42063031 C0.431506849,5.36228162 0.439646739,5.30555373 0.45429854,5.25044664 C0.459182474,5.23180748 0.47057832,5.21478911 0.477090232,5.19614995 C0.489300066,5.16211322 0.500695912,5.12726609 0.518603669,5.09566055 C0.530813503,5.07459019 0.548721261,5.05757183 0.563373062,5.03812226 C0.582094808,5.01218952 0.599188577,4.98544637 0.621166279,4.96275521 C0.639888025,4.94411605 0.664307694,4.93033928 0.685471407,4.91413131 C0.709077087,4.89468175 0.730240801,4.87361139 0.757102437,4.85821382 L0.757916425,4.85821382 L8.58035041,0.37427951 C8.78191923,0.258801807 9.02997276,0.258801807 9.23154158,0.37427951 L17.0539756,4.85821382 L17.0556035,4.85821382 C17.0816512,4.87442179 17.1036289,4.89468175 17.1272346,4.91332091 C17.1483983,4.92952888 17.172004,4.94411605 17.1907257,4.96194482 C17.2135174,4.98544637 17.2297972,5.01218952 17.2493329,5.03812226 C17.2631707,5.05757183 17.2818925,5.07459019 17.2932883,5.09566055 C17.3120101,5.12807649 17.3225919,5.16211322 17.3356157,5.19614995 C17.3421277,5.21478911 17.3535235,5.23180748 17.3584074,5.25125704 C17.3733943,5.30648304 17.3810566,5.36342437 17.3811991,5.42063031 L17.3811991,22.0816109 L23.8996228,18.3448639 L23.8996228,9.82757677 C23.8996228,9.77084888 23.9077627,9.7133106 23.9224145,9.6590139 C23.9281124,9.63956434 23.9386943,9.62254598 23.9452062,9.60390681 C23.95823,9.56987008 23.9696258,9.53502295 23.9875336,9.50341741 C23.9997434,9.48234706 24.0176512,9.46532869 24.031489,9.44587913 C24.0510247,9.41994638 24.0673045,9.39320323 24.0900962,9.37051208 C24.108818,9.35187291 24.1324236,9.33809614 24.1535873,9.32188817 C24.178007,9.30243861 24.1991707,9.28136825 24.2252184,9.26597068 L24.2260324,9.26597068 L32.0492803,4.78203637 C32.2508045,4.66639229 32.4989474,4.66639229 32.7004715,4.78203637 L40.5229055,9.26597068 C40.5505811,9.28217865 40.5717448,9.30243861 40.5961645,9.32107777 C40.6165142,9.33728574 40.6401199,9.35187291 40.6588416,9.36970168 C40.6816333,9.39320323 40.6979131,9.41994638 40.7174489,9.44587913 C40.7321007,9.46532869 40.7500084,9.48234706 40.7614043,9.50341741 C40.780126,9.53502295 40.7907079,9.56987008 40.8037317,9.60390681 C40.8110576,9.62254598 40.8216394,9.63956434 40.8265234,9.6590139 Z M39.5453047,18.3448639 L39.5453047,10.9507889 L36.8078598,12.5197202 L33.0260671,14.6875359 L33.0260671,22.0816109 L39.5461187,18.3448639 L39.5453047,18.3448639 Z M31.7228708,31.7204894 L31.7228708,24.321552 L28.0029412,26.4366918 L17.3803851,32.4725391 L17.3803851,39.9411707 L31.7228708,31.7204894 Z M1.73551718,6.54303208 L1.73551718,31.7204894 L16.0763748,39.9403603 L16.0763748,32.4733495 L8.58442035,28.2519842 L8.58197839,28.2503635 L8.57872243,28.2487427 C8.55348877,28.2341555 8.53232506,28.2130851 8.50871938,28.1952564 C8.48836965,28.1790484 8.46476397,28.166082 8.44685622,28.1482533 L8.44522824,28.1458221 C8.42406453,28.1255621 8.40941273,28.1004397 8.39150497,28.0777486 C8.37522519,28.0558678 8.35568945,28.0372287 8.34266563,28.0145375 L8.34185164,28.0121063 C8.32719984,27.9877944 8.31824596,27.95862 8.3076641,27.9310665 C8.29708225,27.9067545 8.28324444,27.8840634 8.27673252,27.8581306 L8.27673252,27.8573202 C8.26859263,27.8265251 8.26696466,27.7941092 8.2637087,27.7625036 C8.26045274,27.7381917 8.25394083,27.7138797 8.25394083,27.6895678 L8.25394083,27.687947 L8.25394083,10.2797791 L4.47296208,8.11115297 L1.73551718,6.54384248 L1.73551718,6.54303208 Z M8.90675998,1.68550411 L2.38915032,5.42063031 L8.90513201,9.1557565 L15.4219277,5.41981991 L8.90513201,1.68550411 L8.90675998,1.68550411 Z M12.29621,24.9958035 L16.0771888,22.8287982 L16.0771888,6.54303208 L13.3397439,8.11196337 L9.55795116,10.2797791 L9.55795116,26.5655452 L12.29621,24.9958035 Z M32.3748759,6.09326097 L25.8580802,9.82838717 L32.3748759,13.5635134 L38.8908576,9.82757677 L32.3748759,6.09326097 Z M31.7228708,14.6875359 L27.941078,12.5197202 L25.2036331,10.9507889 L25.2036331,18.3448639 L28.9846119,20.5118692 L31.7228708,22.0816109 L31.7228708,14.6875359 Z M16.727566,31.3501373 L26.2862384,25.9172265 L31.0643537,23.2023919 L24.5524419,19.4696969 L17.0547896,23.7672395 L10.2213522,27.683895 L16.727566,31.3501373 Z" id="Logomark" opacity="0.297879464"></path>
            <path d="M32.4349315,15.6780822 C33.1101564,15.6780822 33.6575342,15.1307043 33.6575342,14.4554795 C33.6575342,13.7802546 33.1101564,13.2328767 32.4349315,13.2328767 C31.7597067,13.2328767 31.2123288,13.7802546 31.2123288,14.4554795 C31.2123288,15.1307043 31.7597067,15.6780822 32.4349315,15.6780822 Z M39.9143836,11.2191781 C40.5896084,11.2191781 41.1369863,10.6718002 41.1369863,9.99657534 C41.1369863,9.32135049 40.5896084,8.7739726 39.9143836,8.7739726 C39.2391587,8.7739726 38.6917808,9.32135049 38.6917808,9.99657534 C38.6917808,10.6718002 39.2391587,11.2191781 39.9143836,11.2191781 Z M32.4349315,6.90410959 C33.1101564,6.90410959 33.6575342,6.3567317 33.6575342,5.68150685 C33.6575342,5.006282 33.1101564,4.45890411 32.4349315,4.45890411 C31.7597067,4.45890411 31.2123288,5.006282 31.2123288,5.68150685 C31.2123288,6.3567317 31.7597067,6.90410959 32.4349315,6.90410959 Z M24.9554795,11.2191781 C25.6307043,11.2191781 26.1780822,10.6718002 26.1780822,9.99657534 C26.1780822,9.32135049 25.6307043,8.7739726 24.9554795,8.7739726 C24.2802546,8.7739726 23.7328767,9.32135049 23.7328767,9.99657534 C23.7328767,10.6718002 24.2802546,11.2191781 24.9554795,11.2191781 Z M24.9554795,20.1369863 C25.6307043,20.1369863 26.1780822,19.5896084 26.1780822,18.9143836 C26.1780822,18.2391587 25.6307043,17.6917808 24.9554795,17.6917808 C24.2802546,17.6917808 23.7328767,18.2391587 23.7328767,18.9143836 C23.7328767,19.5896084 24.2802546,20.1369863 24.9554795,20.1369863 Z M16.7568493,33.369863 C17.4320742,33.369863 17.9794521,32.8224851 17.9794521,32.1472603 C17.9794521,31.4720354 17.4320742,30.9246575 16.7568493,30.9246575 C16.0816245,30.9246575 15.5342466,31.4720354 15.5342466,32.1472603 C15.5342466,32.8224851 16.0816245,33.369863 16.7568493,33.369863 Z M16.7568493,42 C17.4320742,42 17.9794521,41.4526221 17.9794521,40.7773973 C17.9794521,40.1021724 17.4320742,39.5547945 16.7568493,39.5547945 C16.0816245,39.5547945 15.5342466,40.1021724 15.5342466,40.7773973 C15.5342466,41.4526221 16.0816245,42 16.7568493,42 Z M1.22260274,33.369863 C1.89782759,33.369863 2.44520548,32.8224851 2.44520548,32.1472603 C2.44520548,31.4720354 1.89782759,30.9246575 1.22260274,30.9246575 C0.547377892,30.9246575 0,31.4720354 0,32.1472603 C0,32.8224851 0.547377892,33.369863 1.22260274,33.369863 Z M1.36643836,6.90410959 C2.0416632,6.90410959 2.5890411,6.3567317 2.5890411,5.68150685 C2.5890411,5.006282 2.0416632,4.45890411 1.36643836,4.45890411 C0.691213508,4.45890411 0.143835616,5.006282 0.143835616,5.68150685 C0.143835616,6.3567317 0.691213508,6.90410959 1.36643836,6.90410959 Z M8.98972603,11.0753425 C9.66495088,11.0753425 10.2123288,10.5279646 10.2123288,9.85273973 C10.2123288,9.17751488 9.66495088,8.63013699 8.98972603,8.63013699 C8.31450118,8.63013699 7.76712329,9.17751488 7.76712329,9.85273973 C7.76712329,10.5279646 8.31450118,11.0753425 8.98972603,11.0753425 Z M16.4691781,7.04794521 C17.1444029,7.04794521 17.6917808,6.50056731 17.6917808,5.82534247 C17.6917808,5.15011762 17.1444029,4.60273973 16.4691781,4.60273973 C15.7939532,4.60273973 15.2465753,5.15011762 15.2465753,5.82534247 C15.2465753,6.50056731 15.7939532,7.04794521 16.4691781,7.04794521 Z M8.98972603,2.44520548 C9.66495088,2.44520548 10.2123288,1.89782759 10.2123288,1.22260274 C10.2123288,0.547377892 9.66495088,0 8.98972603,0 C8.31450118,0 7.76712329,0.547377892 7.76712329,1.22260274 C7.76712329,1.89782759 8.31450118,2.44520548 8.98972603,2.44520548 Z M32.4349315,33.369863 C33.1101564,33.369863 33.6575342,32.8224851 33.6575342,32.1472603 C33.6575342,31.4720354 33.1101564,30.9246575 32.4349315,30.9246575 C31.7597067,30.9246575 31.2123288,31.4720354 31.2123288,32.1472603 C31.2123288,32.8224851 31.7597067,33.369863 32.4349315,33.369863 Z M9.13356164,28.7671233 C9.80878649,28.7671233 10.3561644,28.2197454 10.3561644,27.5445205 C10.3561644,26.8692957 9.80878649,26.3219178 9.13356164,26.3219178 C8.4583368,26.3219178 7.9109589,26.8692957 7.9109589,27.5445205 C7.9109589,28.2197454 8.4583368,28.7671233 9.13356164,28.7671233 Z M16.7568493,24.3082192 C17.4320742,24.3082192 17.9794521,23.7608413 17.9794521,23.0856164 C17.9794521,22.4103916 17.4320742,21.8630137 16.7568493,21.8630137 C16.0816245,21.8630137 15.5342466,22.4103916 15.5342466,23.0856164 C15.5342466,23.7608413 16.0816245,24.3082192 16.7568493,24.3082192 Z M32.4349315,24.3082192 C33.1101564,24.3082192 33.6575342,23.7608413 33.6575342,23.0856164 C33.6575342,22.4103916 33.1101564,21.8630137 32.4349315,21.8630137 C31.7597067,21.8630137 31.2123288,22.4103916 31.2123288,23.0856164 C31.2123288,23.7608413 31.7597067,24.3082192 32.4349315,24.3082192 Z M40.0582192,20.1369863 C40.733444,20.1369863 41.2808219,19.5896084 41.2808219,18.9143836 C41.2808219,18.2391587 40.733444,17.6917808 40.0582192,17.6917808 C39.3829943,17.6917808 38.8356164,18.2391587 38.8356164,18.9143836 C38.8356164,19.5896084 39.3829943,20.1369863 40.0582192,20.1369863 Z" id="Mesh"></path>
        </g>
    </g>
</svg>