<?xml version="1.0" encoding="UTF-8"?>
<svg width="21px" height="18px" viewBox="0 0 21 18" version="1.1" xmlns="http://www.w3.org/2000/svg" xmlns:xlink="http://www.w3.org/1999/xlink">
    <title>Path</title>
    <g id="Page-1" stroke="none" stroke-width="1" fill="none" fill-rule="evenodd">
        <g id="Extra-Large" transform="translate(-1297.000000, -1273.000000)" fill="#FFFFFF" fill-rule="nonzero">
            <path d="M1315.22722,1277.85763 C1315.2396,1278.03665 1315.2396,1278.21566 1315.2396,1278.39632 C1315.2396,1283.9012 1311.04886,1290.25 1303.38592,1290.25 L1303.38592,1290.2467 C1301.12226,1290.25 1298.90563,1289.60159 1297,1288.37902 C1297.32915,1288.41862 1297.65996,1288.43841 1297.99159,1288.43924 C1299.86752,1288.44089 1301.68983,1287.81145 1303.16566,1286.6524 C1301.38295,1286.61858 1299.81967,1285.45623 1299.27356,1283.75931 C1299.89804,1283.87975 1300.5415,1283.855 1301.15444,1283.68754 C1299.21086,1283.29486 1297.81257,1281.58722 1297.81257,1279.60405 L1297.81257,1279.55125 C1298.39169,1279.8738 1299.0401,1280.05282 1299.70335,1280.07262 C1297.87279,1278.84922 1297.30853,1276.41397 1298.41396,1274.50999 C1300.52913,1277.1127 1303.64991,1278.69495 1307.00002,1278.86242 C1306.66426,1277.41546 1307.12294,1275.89921 1308.20527,1274.88205 C1309.88321,1273.30474 1312.52222,1273.38559 1314.09952,1275.06271 C1315.03254,1274.87875 1315.92678,1274.53639 1316.74513,1274.05132 C1316.43412,1275.01569 1315.78324,1275.83486 1314.91374,1276.3554 C1315.73952,1276.25806 1316.54632,1276.03697 1317.30609,1275.69957 C1316.74678,1276.53772 1316.04227,1277.26779 1315.22722,1277.85763 Z" id="Path"></path>
        </g>
    </g>
</svg>